<?xml version="1.0" encoding="utf-8"?><svg width="24.34" height="30" fill="none" xmlns="http://www.w3.org/2000/svg" viewBox="0 0 86 106"><path fill-rule="evenodd" clip-rule="evenodd" d="M36.763 57.378h-3.197V48.43c0-.146.045-12.409 13.574-12.409h27.246c.083 0 8.417-.12 8.417-10.484 0-9.605-6.88-9.715-6.88-9.715v-3.164C79.12 12.657 86 15.347 86 25.536c0 6.118-2.568 9.412-4.647 11.096-2.323 1.882-5.165 2.552-6.967 2.552H47.14c-10.166 0-10.377 8.324-10.377 9.274v8.92z" fill="white"/><path fill-rule="evenodd" clip-rule="evenodd" d="M76.475 12.616c0 6.968-6.241 12.616-13.94 12.616H13.94C6.24 25.232 0 19.584 0 12.616S6.241 0 13.94 0h48.594c7.7 0 13.941 5.648 13.941 12.616z" fill="white"/><path fill-rule="evenodd" clip-rule="evenodd" d="M7.283 25.455c0 2.365-1.486 4.283-3.32 4.283H3.32C1.487 29.738 0 27.82 0 25.454V14.194c0-2.365 1.487-4.282 3.321-4.282h.641c1.835 0 3.321 1.917 3.321 4.282v11.261zM23.976 37.888c0 1.792-1.468 3.246-3.28 3.246h-.633c-1.812 0-3.28-1.454-3.28-3.246V21.44c0-1.793 1.468-3.246 3.28-3.246h.633c1.812 0 3.28 1.453 3.28 3.246v16.448zM23.976 52.918c0 1.792-1.468 3.246-3.28 3.246h-.633c-1.812 0-3.28-1.454-3.28-3.246v-3.792c0-1.792 1.468-3.245 3.28-3.245h.633c1.812 0 3.28 1.453 3.28 3.245v3.792zM41.879 25.65c0 2.257-1.487 4.088-3.321 4.088h-.641c-1.835 0-3.321-1.831-3.321-4.088V14.9c0-2.257 1.486-4.086 3.32-4.086h.642c1.834 0 3.321 1.83 3.321 4.086v10.75zM52.746 29.977c0 1.793-1.468 3.247-3.28 3.247h-.632c-1.812 0-3.28-1.454-3.28-3.246V21.44c0-1.793 1.468-3.246 3.28-3.246h.633c1.811 0 3.28 1.453 3.28 3.246v8.537zM63.935 29.977c0 1.793-1.468 3.247-3.28 3.247h-.632c-1.812 0-3.28-1.454-3.28-3.246V21.44c0-1.793 1.468-3.246 3.28-3.246h.633c1.811 0 3.28 1.453 3.28 3.246v8.537zM42.357 99.258c0 3.723-3.05 6.742-6.811 6.742h-.763c-3.762 0-6.811-3.019-6.811-6.742V62.115c0-3.723 3.05-6.742 6.811-6.742h.763c3.761 0 6.811 3.019 6.811 6.742v37.143z" fill="white"/></svg>